<?xml version="1.0" encoding="UTF-8"?><svg id="Layer_1" xmlns="http://www.w3.org/2000/svg" viewBox="0 0 950.24 899.02"><defs><style>.cls-1{font-family:Arial-BoldItalicMT, Arial;font-size:160px;font-style:italic;font-weight:700;letter-spacing:.2em;}.cls-1,.cls-2{fill:#030a26;}.cls-3{fill:#9cb3cd;}.cls-3,.cls-2,.cls-4{stroke-width:0px;}.cls-4{fill:#fefefe;}</style></defs><path class="cls-2" d="M827.01,487.63c2.13-.39,8.49-1.47,15.67,1.1,11.99,4.28,17.59,15.59,19.55,19.56,6.33,12.84,9.59,26.64,11.98,40.69.32,1.88,1.7,3.91,3.17,5.21,5.37,4.73,11.83,8.47,16.34,13.86,13.1,15.67,14.63,33.62,6.21,51.73-10.8,23.21-22.68,45.91-34.19,68.78-3.31,6.58-6.89,13.03-10.51,19.45-.76,1.34-2.26,2.25-3.4,3.38-.59.58-1.32,1.14-1.63,1.86-1.13,2.63-1.74,5.54-3.19,7.95-11.75,19.49-26.89,36.17-43.48,51.55-50.72,47.02-109.35,80.5-174.99,101.84-35.04,11.39-70.87,19.54-107.62,21.99-28.15,1.88-56.54,3.3-84.65,1.81-57.44-3.05-113.19-15.33-166.07-38.48-21-9.19-41.14-20.34-61.64-30.68-2.63-1.33-5.01-3.15-7.64-4.84,5.53-18.67,11-37.12,16.62-56.09-12.14-1.83-24.17-3.61-36.19-5.47-28.02-4.35-56.09-8.44-84.03-13.27-12.19-2.11-24.48-4.74-36.08-8.93C21.92,726.46-1.35,692.86.06,651.19c.49-14.37,4.28-28.71,7.28-42.91,9.56-45.35,19.49-90.62,29.19-135.94,3.4-15.91,6.44-31.9,9.94-47.78.55-2.48,2.18-5.21,4.14-6.8,6.36-5.17,13.2-9.74,19.64-14.83,1.54-1.22,3.03-3.45,3.18-5.33,1.91-22.93,3.47-45.88,5.35-68.81,1-12.23.93-24.81,3.98-36.54,6.58-25.3,25-39.38,49.36-46.09,7-1.93,14.44-2.41,21.73-3.06,5.82-.52,12.57-9.39,10.61-14.89-5.29-14.9-10.15-29.91-11.52-45.78-1.11-12.9-.53-25.65,4.98-37.65,4.58-9.97,12.09-16.36,23.41-16.86,10.93-.48,18.7,5.09,24.02,14.22,9.23,15.85,8.78,32.97,5.58,50.15-3.16,16.94-11.58,31.45-22.27,44.78-1.24,1.54-1.79,4.35-1.42,6.33.95,4.95,2.61,9.75,3.85,14.12,6.56.61,12.77.45,18.61,1.87,16.7,4.05,26.88,15.21,31.33,31.51,4.63,16.93-.36,31.46-12.16,43.95-1.2,1.27-2.42,2.75-3.94,3.46-6.98,3.27-6.42,8.05-4.15,14.34,3.57,9.93,5.8,20.21,2.83,30.9-4.96,17.87-19.67,28.76-38.28,28.18-2.26-.07-4.53,0-6.8,0-2.37,4.68-3.11,9.11,1.52,12.94,6,4.96,6.06,11.13,4.88,18.37-6.56,40.47-12.68,81.01-18.94,121.52-.79,5.13-1.52,10.26-2.44,16.47,11.56-4.45,18.9,1.07,25.06,8.57,8.88,10.83,17.32,22.01,25.95,33.03,6.69,11.55,13.37,23.11,20.07,34.69,5.23-3.99,2.58-7.97.42-11.93-7.51-24.06-18.02-46.54-35.45-66.33,34.59-9.27,68.4-18.32,102.34-27.42-5.23,10.41-10.43,20.39-15.28,30.54-2.85,5.95-5.14,12.17-7.69,18.27-2.49,7.94-4.97,15.89-7.46,23.83.59.27,1.18.54,1.77.82,6.8-11.57,13.6-23.15,20.4-34.72,5.36-7.13,10.84-14.19,16.07-21.42,12.74-17.61,29.72-28.99,50.51-34.89,3.19-.91,6.25-2.46,9.48-3.03,10.14-1.79,16.53-7.64,20.99-16.8,2.13-4.39,6.43-7.67,9.44-11.69,1.45-1.93,2.96-4.34,3.1-6.62.41-6.78.15-13.59.15-20.34-9.11-1.65-17.94-2.83-26.56-4.91-21.12-5.09-32.18-22.32-28.87-43.94,2.97-19.38,5.78-38.79,8.49-58.21.18-1.31-.71-3.25-1.75-4.16-4.73-4.15-9.7-8.03-16.02-13.18,12.57-12.03,24.68-23.73,36.92-35.28,3.25-3.07,4.43-5.9,3.77-10.85-1.98-15.02,1.36-29.27,9.12-42.38.79-1.34,1.54-2.69.9-3.57-3.84-7.56-9.17-14.74-11.22-22.76-4.75-18.62,3.04-33.64,16.9-45.75,11.87-10.37,26.23-15.8,41.62-17.14,46.12-4.03,84.11,12.33,113.77,47.76,4.22,5.04,7,11.27,10.45,16.95-.31.22-.62.44-.93.66-4.14-2.23-8.16-4.74-12.45-6.63-16.75-7.39-34.47-9.3-52.51-8.14-24.63,1.57-48.22,6.94-68.7,21.65-13.99,10.05-22.77,23.8-28.01,41.74,5.94-4.04,7.71-.24,9.73,3.04,1.82,2.95,3.64,5.9,5.73,9.3-14.27,15.36-28.44,30.61-43.11,46.4,15.11,6.25,29.73,12.29,44.35,18.33-13.01,3.23-25.61,5.04-38.15,7.17-1.51.26-3.7,2.14-3.91,3.52-2.41,15.94-4.59,31.91-6.61,47.91-.8,6.37-2.48,12.89,1.1,19.05,1.94,6.01,6.77,9.2,12.31,10.22,10.28,1.89,20.71,3.36,31.14,3.96,19.96,1.15,39.98,1.68,59.42-4.5,18.86-6,35.08-15.48,43.15-34.75,1.86-4.44,3.86-5.81,8.78-5.55,20.31,1.06,35.96-7.59,46.87-24.58,4.19-6.53,6.97-13.74,5.42-21.86,1.08-15.63-9.93-27.27-24.53-25.91-9.76.91-18.02,5.3-25.64,11.15-1.98,1.52-3.97,3.04-6.73,5.15-1.66-17.74-2.88-34.51-4.92-51.19-1.12-9.1,1-16.8,6.04-24.22,6.54-9.61,11.37-19.76,6.71-31.82,10.88,3.61,21.75,7.22,33.6,11.15-9.03-10.14-19.81-15.68-31.68-19.47-6.64-1.69-13.29-3.38-20.28-5.15,15.19-2.51,29.54-.91,43.47,4.62,7.06,4.5,14.11,9,21.54,13.73-1.41-3.06-2.82-6.12-4.23-9.18-.44-2.85-.87-5.71-1.31-8.56l-.08.13c15.98,6.22,29.45,16.07,40.79,28.8,16.71,18.75,25.36,40.72,24.21,65.94-.91,20.1-8.26,38.38-19.12,55.01-13.9,21.29-28.21,42.35-43.17,62.91-6.91,9.5-3.98,19.39-4.26,29.28-.02.58.5,1.45,1.01,1.74,9.47,5.22,11.38,15.6,16.19,23.95,2.19,3.79,4.5,6.7,8.77,8.43,24.04,9.74,47.95,19.78,71.94,29.63,2.75,1.13,4.3,2.42,5.19,5.68,11.79,43.45,24.57,86.6,40.74,128.66.55,1.44,1.14,2.87,1.7,4.31,1.76,4.94,3.45,9.91,5.3,14.81,1.92,5.09,3.95,10.13,6.02,15.16,2,4.87,4.03,9.72,6.18,14.52,2.21,4.97,4.37,9.98,6.94,14.76,1.84,3.43,4.33,6.51,6.53,9.75.41-.23.82-.45,1.23-.68-4.44-14.94-8.87-29.89-13.36-44.82-.1-.32-.84-.45-1.29-.67-3.46-12.47-6.94-24.93-10.37-37.4-10.19-36.98-20.38-73.97-30.55-110.95-.17-.63-.18-1.3-.39-2.93,9,3.73,17.34,7.13,25.63,10.65,14.52,6.16,29.05,12.33,43.52,18.6,11.65,5.05,22.67,11.07,30.74,21.72.52-.73.83-1.06,1.03-1.45,2.23-4.22,5.79-8.31,6.28-12.73.5-4.51-3.04-9.35-3.06-14.04-.04-13.32,8.05-21.48,19.2-27.18,1.53-.78,3.15-1.38,5.24-2.29-2.31-4.98-4.36-9.77-6.73-14.4-3.53-6.91-4.25-11.23-4.27-16.8,0-2.98-.02-7.98,2.81-13.14,5.54-10.1,17.33-12.25,19.85-12.71ZM236.76,660.54l-.14-.12s.19.11.19.11c.21.36.42.73-.1-.17.25.99.15.58.04.18ZM437.77,203.94c8.33,1.2,15.32-2.78,24.13-6.17-4.91-1.19-8.38-2.03-11.85-2.87-5.59-.16-11.24-.87-16.77-.37-11.99,1.09-23.21,4.59-30.91,14.63-2.96,3.86-4.7,8.67-6.99,13.05,6.77-3.32,11.97-7.99,18.05-10.65,7.74-3.39,16.2-5.15,24.35-7.62ZM163.07,262.92c-1.12-.69-2.25-1.99-3.35-1.97-5.41.11-10.87.19-16.21.99-13.13,1.97-24.99,6.7-33.98,17.09-5.83,6.75-9.76,15.72-9.27,21.39,3.33-2.93,6.73-5.92,10.13-8.91,13.63-7.53,27.98-12.48,43.78-11.74,4.48.21,9-.94,10.17-4.7,1.11-3.58-.72-8.07-1.26-12.16ZM785.76,678.48c-1.25,1.8-2.49,3.61-4.18,6.05,11.9,6.25,23.16,12.3,34.55,18.08,4.83,2.45,9.9,4.47,14.95,6.47,2.93,1.16,5.28.77,4.96-3.3,3.08-5.74,6.17-11.48,9.32-17.35-19.17-5.37-37.14-11.47-50.34-27.43-3.3,6.23-6.28,11.85-9.25,17.47ZM540.15,436c-4.49.8-9.36.75-13.41,2.56-11.84,5.3-20.81,14.33-27.8,25.03-9,13.79-17.34,28.02-25.89,42.1-3.21,5.28-6.22,10.69-9.31,16.04.39.57.78,1.13,1.17,1.7,12.12-4.77,24.23-9.54,36.35-14.31,14.85-6.8,28.48-15.56,41.1-25.89,1.37-1.12,3.17-2.95,3.12-4.39-.46-13.44-1.22-26.87-2.14-40.29-.06-.92-2.08-1.71-3.19-2.55ZM155.59,372.62c.67-.8,1.33-1.61,2.03-2.39,6.34-7.06,17.15-9.19,25.45-5.04,7.12,3.56,11.05,11.51,9.28,19.92-.67,3.18-2.59,6.1-3.98,9.23,13.78-2.39,21.03-12.58,18.01-25.71-1.47-6.42-3.75-12.65-5.73-19.19-20,4.69-37.46,1.92-50.73-14.08-5.44,1.32-5.86,4.26-5.03,9.07.93,5.38.14,11.05.1,16.59-.48,1.07-.96,2.13-1.67,3.71-6.46-11.22-12.3-20.57-12.71-32.13-.13-3.53.48-6.16,3.92-7.69,5.25-2.32,10.39-4.9,15.69-7.08,8.77-3.6,12.73-11.85,9.24-20.38-.49-1.2-2.64-1.72-4.02-2.56-8.31,1.98-17,3.01-24.85,6.14-17.3,6.91-30.77,18.08-34.53,37.64-.89,4.6-.79,9.41-1.05,14.12-.89,16.09-1.73,32.18-2.6,48.27-2.03,4.88-.57,7.89,4.64,9.23,2.69.69,5.22,2,7.9,2.8,14.84,4.41,29.77,6.09,44.73.65,5.34-1.94,9.99-4.89,12.08-10.83-10-8.53-11.3-18.79-6.18-30.3ZM531.63,599.22c-1.7-.41-3.43-.7-5.09-1.24-17.17-5.54-34.32-11.18-51.53-16.61-1.97-.62-4.29-.1-6.45-.11-5.73-.04-11.46-.06-17.18-.16-2.26-.04-4.73-.93-6.73-.29-12.66,4.11-25.22,8.52-37.79,12.89q-13.58,4.72-11.88,19.51c1.75,13.87,2.88,27.86,5.37,41.6,8.76,48.41,25.24,94.41,44.64,139.9.56-.86,1-1.38,1.27-1.97,21.24-45.75,42.59-91.45,63.6-137.3,6.19-13.51,11.41-27.48,17.07-41.23,1.96-4.58,3.92-9.17,5.89-13.75,10.93-27.51,21.87-55.02,32.73-82.56.4-1,.33-2.45-.08-3.46-2.53-6.26-5.22-12.45-7.92-18.8-7.7,5.46-14.74,10.62-21.96,15.53-18.16,12.34-38.45,20.03-59.04,27.11-1.36.47-3.27,1.89-3.38,3.02-.41,4.11-.16,8.29-.16,13.02,19.96-5.81,39.12-11.39,58.59-17.06v61.98ZM811.06,600.55c-1.83,1.47-4.58,2.57-5.32,4.46-2.77,7.09.56,11.68,8.23,12.43,5.17.51,10.39.92,15.45,2,9.12,1.93,15.49,9.94,12.89,16.74-1.65,4.3-5.12,7.9-7.77,11.81-1.2-9.97-3.13-12.95-10.57-14.44-6.28-1.25-12.63-2.1-19.29-3.18.31,12.71,4.84,23.41,16.33,29.16,8.97,4.49,18.95,6.97,28.48,10.36,4.21,1.5,6.73.07,8.66-3.99,7.46-15.69,15.21-31.24,22.73-46.91,1.34-2.79,2.07-5.87,3.08-8.81,5.34-13,1.67-26.34-9.73-35.65-11.87-9.69-25.86-12.87-40.7-13.01-6.88-.06-14.11-1.3-20.32,3.24-3.25,2.76-5.65,6.17-4.46,10.52,1.5,5.46,5.63,7.51,11.24,7.26,5.25-.24,10.52-.17,15.78.02,8.51.3,16.22,3.15,22.59,8.76,6.78,5.98,7.65,18.28,2.13,23.95-3.59-7.04-9.08-12.65-16.8-13.57-10.77-1.29-21.74-.85-32.63-1.15ZM164.97,428.03c-32.33,12.69-62.96,7.51-93.02-9-1,4.51-2.25,8.86-2.76,13.3-.16,1.39,1.33,3.88,2.65,4.41,25.22,10.04,51.35,13.35,78.24,9.54,13.54-1.92,14.81-3.69,15.1-17.4,0-.32-.15-.65-.2-.85ZM178.19,215.88c.56-.04,1.13-.08,1.69-.12,10.08-13.75,16.44-28.85,14.51-46.27-.66-5.9-2.56-12.07-5.49-17.2-3.46-6.05-10.26-5.35-14.03.63-1.01,1.6-2.06,3.43-2.27,5.25-.81,7.09-2.5,14.37-1.62,21.3,1.54,12.25,4.72,24.28,7.22,36.41ZM855.36,544.99c-2.66-11.4-4.81-22.83-11.66-32.38-2.28-3.18-6.1-6.02-9.81-7.26-7.18-2.4-13.11,4-10.57,11.12,3.21,9.02,6.99,17.83,10.42,26.45,7.31.7,14.2,1.36,21.62,2.07ZM399.56,539.07c16.51,5.42,32.41,10.63,48.94,16.05,0-4.29.31-7.97-.14-11.56-.2-1.65-1.53-3.82-2.96-4.54-12.23-6.22-24.61-12.16-37.22-18.32-.33.58-1.29,2.04-2.01,3.61-2.12,4.6-4.14,9.24-6.6,14.76ZM211.97,325.22c11.16-9.25,14.83-21.83,9.99-33-4.28-9.88-13.7-15.44-24.08-13.98,4.66,15.56,9.32,31.07,14.09,46.98ZM166.6,324.34c8.26,8.29,17.53,9.73,28.73,7.08-4.67-15.17-9.21-29.95-13.76-44.73-.47-.11-.94-.21-1.41-.32-1.48,2.9-4.72,6.22-4.15,8.64,2.77,11.64-.1,21.1-9.41,29.33Z"/><path class="cls-3" d="M728.08,702.69c.44.22,1.19.34,1.29.67,4.49,14.93,8.92,29.87,13.36,44.82-.41.23-.82.45-1.23.68-2.2-3.24-4.69-6.32-6.53-9.75-2.57-4.78-4.72-9.79-6.94-14.76-2.14-4.8-4.18-9.66-6.18-14.52-2.06-5.03-4.1-10.07-6.02-15.16-1.85-4.91-3.54-9.87-5.3-14.81.66-.51,1.32-1.03,2.03-1.57,3.81,7.44,7.51,14.94,11.52,22.27.61,1.11,2.62,1.45,3.99,2.14Z"/><path class="cls-3" d="M235.08,645.38c2.16,3.97,4.81,7.94-.42,11.93-6.7-11.58-13.39-23.14-20.07-34.69.99-.88,1.99-1.75,3.4-3,4.57,7.95,9.1,15.97,13.82,23.89.56.94.47,4.35,3.27,1.87Z"/><path class="cls-3" d="M293.71,590.37c-6.8,11.57-13.6,23.15-20.4,34.72-.59-.27-1.18-.54-1.77-.82,2.49-7.94,4.97-15.89,7.46-23.83,1.53-.31,3.67-.09,4.47-1.02,3.21-3.74,6.01-7.83,9.54-12.59.35,1.76.53,2.65.7,3.53Z"/><path class="cls-3" d="M567.92,243.94c1.41,3.06,2.82,6.12,4.23,9.18-7.43-4.74-14.48-9.23-21.54-13.73,2.19.32,4.41.51,6.56,1,1.51.34,3.2,3.16,4.1-.57l.05-.06c2.2,1.4,4.4,2.79,6.61,4.19Z"/><path class="cls-2" d="M560.97,238.18c.11.52.23,1.05.34,1.57,0,0-.05.06-.05.06-.41-.32-.82-.65-1.22-.97.31-.22.62-.44.93-.66Z"/><path class="cls-2" d="M566.61,235.38c-.22.02-.44.03-.66.05,0-.14.02-.28.03-.43.18.17.37.34.55.51,0,0,.08-.13.08-.13Z"/><path class="cls-4" d="M560.04,238.84c.41.32.82.65,1.22.97-.9,3.73-2.59.91-4.1.57-2.15-.49-4.37-.68-6.56-1-13.93-5.52-28.28-7.13-43.47-4.62,6.99,1.78,13.63,3.46,20.28,5.15-.64,2.78-1.28,5.55-1.92,8.33,4.66,12.06-.16,22.21-6.71,31.82-5.04,7.41-7.16,15.11-6.04,24.22,2.04,16.68,3.27,33.46,4.92,51.19,2.76-2.11,4.75-3.63,6.73-5.15,7.62-5.85,15.88-10.24,25.64-11.15,14.6-1.35,25.6,10.28,24.53,25.91-2.11,3.49-4.34,6.92-6.32,10.49-11.74,21.18-39.58,36.94-65.3,19.43-3.92-2.67-5.31.43-7.05,2.6-6.81,8.45-13.47,17.01-20.25,25.48-11.69,14.6-27.17,21.69-45.6,22.17-15.25.39-30.52.35-45.77-.03-4.17-.1-8.27-2.19-12.44-3.16-1.37-.32-2.89.04-4.34.09-3.58-6.16-1.9-12.68-1.1-19.05,2.02-15.99,4.21-31.97,6.61-47.91.21-1.38,2.4-3.26,3.91-3.52,12.54-2.13,25.13-3.93,38.15-7.17-14.62-6.04-29.24-12.09-44.35-18.33,14.67-15.79,28.84-31.05,43.11-46.4-2.09-3.4-3.91-6.35-5.73-9.3-2.02-3.27-3.79-7.07-9.73-3.04,5.23-17.94,14.01-31.69,28.01-41.74,20.49-14.71,44.08-20.07,68.7-21.65,18.05-1.15,35.76.75,52.51,8.14,4.29,1.89,8.31,4.41,12.45,6.63ZM426.1,297.99c23.45-2.01,45.63,1.9,66.78,13.2-6.84-30.11-34.98-38.1-66.78-28.55v15.34ZM522.87,391.05c4.78-.94,9.42-1.21,13.54-2.8,10.66-4.12,19.53-10.3,21.46-22.81.75-4.88-1.67-10.87-4.77-11.81-3.84-1.17-7.91,1.37-10.55,6.75-1.08,2.19-1.56,4.74-2.9,6.72-5.25,7.77-10.73,15.37-16.77,23.96Z"/><path class="cls-4" d="M526.95,614.21c-5.66,13.76-10.88,27.72-17.07,41.23-21.01,45.85-42.37,91.55-63.6,137.3-.28.59-.71,1.11-1.27,1.97-19.41-45.49-35.88-91.49-44.64-139.9-2.49-13.74-3.62-27.73-5.37-41.6,16.34-6.16,32.73-12.17,48.98-18.54,10.09-3.96,20.01-4,30.06-.26,2.78,1.03,5.59,2.01,8.36,3.05,14.85,5.58,29.7,11.17,44.55,16.75ZM450.05,623.65c-6.73-.06-12.15,5.11-12.21,11.66-.07,6.94,4.99,12.35,11.53,12.33,6.53-.02,12.61-6,12.57-12.36-.04-6.16-5.58-11.57-11.9-11.63ZM435.88,693.19c-.11,7.06,4.34,11.84,11.08,11.9,6.88.06,12.44-4.99,12.56-11.42.13-6.88-4.76-11.97-11.68-12.15-6.85-.18-11.85,4.7-11.96,11.67Z"/><path class="cls-3" d="M860.49,615.27c5.52-5.67,4.65-17.97-2.13-23.95-6.37-5.61-14.08-8.46-22.59-8.76-5.25-.19-10.53-.25-15.78-.02-5.61.25-9.74-1.79-11.24-7.26-1.2-4.35,1.2-7.75,4.45-10.52,6.85,8.08,16.61,9.27,26.11,11.6,8.92,2.19,17.86,4.94,26.15,8.83,10.28,4.83,16.51,13.55,18.49,24.98-1.01,2.95-1.74,6.03-3.08,8.81-7.52,15.66-15.28,31.21-22.73,46.91-1.93,4.06-4.46,5.49-8.66,3.99-9.53-3.39-19.51-5.86-28.48-10.36-11.49-5.76-16.03-16.46-16.33-29.16,6.66,1.08,13.02,1.93,19.29,3.18,7.44,1.48,9.38,4.47,10.57,14.44,2.65-3.91,6.12-7.51,7.77-11.81,2.6-6.8-3.77-14.81-12.89-16.74-5.07-1.07-10.28-1.49-15.45-2-7.67-.75-11.01-5.34-8.23-12.43.74-1.89,3.49-3,5.32-4.46,4.82,5.56,10.59,9.05,17.98,10.79,7.06,1.66,13.93,4.61,20.47,7.84,5.26,2.59,9.89,6.43,15.5,10.18-1.66-5.2-3.09-9.65-4.52-14.09Z"/><path class="cls-3" d="M367.5,442.16c1.45-.05,2.97-.4,4.34-.09,4.18.97,8.28,3.05,12.44,3.16,15.25.37,30.52.42,45.77.03,18.43-.47,33.91-7.56,45.6-22.17,6.78-8.47,13.45-17.03,20.25-25.48,1.75-2.17,3.13-5.26,7.05-2.6,25.72,17.51,53.56,1.75,65.3-19.43,1.98-3.57,4.2-7,6.32-10.49,1.55,8.12-1.23,15.33-5.42,21.86-10.91,16.99-26.56,25.64-46.87,24.58-4.91-.26-6.92,1.11-8.78,5.55-8.07,19.26-24.29,28.75-43.15,34.75-19.44,6.18-39.46,5.66-59.42,4.5-10.43-.6-20.86-2.07-31.14-3.96-5.54-1.02-10.37-4.21-12.31-10.22Z"/><path class="cls-4" d="M92.43,401.07c.86-16.09,1.71-32.18,2.6-48.27.26-4.72.16-9.52,1.05-14.12,3.76-19.56,17.23-30.73,34.53-37.64,7.85-3.14,16.54-4.16,24.85-6.14.6,9.1-3.25,13.67-12.99,17.68-6.01,2.48-11.78,5.88-16.98,9.78-2.68,2.01-4.69,5.79-5.6,9.15-2.92,10.72-1.01,21.11,3.26,31.25,3.12,7.42,6.32,14.88,8.51,22.6,3.19,11.26-1.76,21.26-15,19.82-8.12-.88-16.14-2.71-24.21-4.11Z"/><path class="cls-4" d="M531.63,599.22v-61.98c-19.47,5.67-38.63,11.25-58.59,17.06,0-4.72-.25-8.9.16-13.02.11-1.13,2.02-2.55,3.38-3.02,20.58-7.08,40.88-14.78,59.04-27.11,7.22-4.9,14.26-10.07,21.96-15.53,2.69,6.35,5.39,12.54,7.92,18.8.41,1.01.47,2.46.08,3.46-10.86,27.54-21.81,55.05-32.74,82.56-.4-.41-.8-.83-1.21-1.24Z"/><path class="cls-3" d="M92.43,401.07c8.07,1.4,16.09,3.23,24.21,4.11,13.24,1.44,18.19-8.56,15-19.82-2.19-7.72-5.39-15.18-8.51-22.6-4.27-10.14-6.17-20.53-3.26-31.25.91-3.36,2.92-7.14,5.6-9.15,5.2-3.9,10.98-7.31,16.98-9.78,9.75-4.02,13.59-8.58,12.99-17.68,1.38.84,3.53,1.36,4.02,2.56,3.49,8.53-.47,16.77-9.24,20.38-5.3,2.18-10.44,4.75-15.69,7.08-3.45,1.53-4.05,4.16-3.92,7.69.42,11.56,6.26,20.92,12.71,32.13.71-1.58,1.19-2.65,1.67-3.71,3.53,3.87,7.06,7.74,10.59,11.6-5.12,11.52-3.82,21.77,6.18,30.3-2.09,5.95-6.74,8.89-12.08,10.83-14.96,5.44-29.89,3.76-44.73-.65-2.67-.79-5.2-2.1-7.9-2.8-5.21-1.34-6.67-4.35-4.64-9.23Z"/><path class="cls-3" d="M501.25,509.13c-12.12,4.77-24.23,9.54-36.35,14.31-.39-.57-.78-1.13-1.17-1.7,3.1-5.35,6.11-10.76,9.31-16.04,8.55-14.08,16.89-28.31,25.89-42.1,6.98-10.7,15.96-19.73,27.8-25.03,4.04-1.81,8.91-1.76,13.41-2.56-3.56,4.04-7.83,7.65-10.54,12.2-5.2,8.72-9.89,17.81-14.12,27.05-5.1,11.13-9.52,22.57-14.23,33.88Z"/><path class="cls-3" d="M531.63,599.22c.4.41.8.83,1.21,1.24-1.96,4.58-3.92,9.17-5.89,13.75-14.85-5.59-29.7-11.18-44.55-16.75-2.78-1.04-5.58-2.02-8.36-3.05-10.06-3.73-19.97-3.7-30.06.26-16.25,6.38-32.65,12.38-48.98,18.54q-1.69-14.76,11.88-19.51c12.57-4.37,25.13-8.78,37.79-12.89,2-.65,4.47.25,6.73.29,5.73.1,11.45.11,17.18.16,2.16.02,4.48-.51,6.45.11,17.21,5.43,34.35,11.07,51.53,16.61,1.66.53,3.39.83,5.09,1.24Z"/><path class="cls-4" d="M501.25,509.13c4.71-11.31,9.13-22.75,14.23-33.88,4.24-9.24,8.92-18.33,14.12-27.05,2.71-4.55,6.98-8.16,10.54-12.2,1.11.85,3.12,1.63,3.19,2.55.92,13.42,1.68,26.85,2.14,40.29.05,1.44-1.75,3.27-3.12,4.39-12.62,10.33-26.25,19.08-41.1,25.89Z"/><path class="cls-4" d="M155.59,372.62c-3.53-3.87-7.06-7.74-10.59-11.6.04-5.54.83-11.22-.1-16.59-.83-4.81-.41-7.75,5.03-9.07,13.27,16,30.73,18.77,50.73,14.08,1.98,6.53,4.25,12.77,5.73,19.19,3.02,13.13-4.23,23.33-18.01,25.71,1.39-3.13,3.31-6.05,3.98-9.23,1.77-8.41-2.17-16.36-9.28-19.92-8.31-4.15-19.11-2.02-25.45,5.04-.7.78-1.35,1.59-2.03,2.39Z"/><path class="cls-4" d="M164.97,428.03c.05.21.2.53.2.85-.29,13.71-1.56,15.48-15.1,17.4-26.89,3.81-53.02.49-78.24-9.54-1.32-.52-2.81-3.01-2.65-4.41.51-4.43,1.77-8.78,2.76-13.3,30.06,16.51,60.69,21.69,93.02,9Z"/><path class="cls-4" d="M178.19,215.88c-2.49-12.13-5.67-24.16-7.22-36.41-.87-6.93.81-14.21,1.62-21.3.21-1.82,1.26-3.65,2.27-5.25,3.77-5.98,10.57-6.69,14.03-.63,2.93,5.13,4.84,11.3,5.49,17.2,1.94,17.42-4.43,32.52-14.51,46.27-.56.04-1.13.08-1.69.12Z"/><path class="cls-4" d="M883.96,610.18c-1.99-11.43-8.21-20.16-18.49-24.98-8.28-3.89-17.23-6.65-26.15-8.83-9.5-2.33-19.26-3.51-26.11-11.6,6.21-4.54,13.44-3.31,20.32-3.24,14.84.14,28.83,3.31,40.7,13.01,11.4,9.31,15.07,22.64,9.73,35.65Z"/><path class="cls-4" d="M785.76,678.48c2.98-5.62,5.95-11.24,9.25-17.47,13.2,15.96,31.17,22.06,50.34,27.43-3.15,5.87-6.23,11.61-9.32,17.35-10.89-5.43-21.88-10.66-32.62-16.37-6.1-3.24-11.78-7.26-17.66-10.94Z"/><path class="cls-4" d="M855.36,544.99c-7.42-.71-14.31-1.37-21.62-2.07-3.42-8.61-7.21-17.43-10.42-26.45-2.54-7.13,3.39-13.52,10.57-11.12,3.7,1.24,7.52,4.07,9.81,7.26,6.85,9.55,9,20.98,11.66,32.38Z"/><path class="cls-4" d="M399.56,539.07c2.46-5.53,4.49-10.17,6.6-14.76.72-1.57,1.68-3.03,2.01-3.61,12.62,6.16,24.99,12.1,37.22,18.32,1.43.73,2.76,2.9,2.96,4.54.45,3.59.14,7.27.14,11.56-16.53-5.42-32.43-10.64-48.94-16.05Z"/><path class="cls-4" d="M211.97,325.22c-4.77-15.92-9.42-31.43-14.09-46.98,10.38-1.46,19.8,4.1,24.08,13.98,4.84,11.17,1.17,23.75-9.99,33Z"/><path class="cls-4" d="M110.39,291.53c-3.4,2.99-6.8,5.98-10.13,8.91-.48-5.67,3.44-14.65,9.27-21.39,8.99-10.39,20.85-15.12,33.98-17.09,5.34-.8,10.8-.88,16.21-.99,1.1-.02,2.23,1.28,3.35,1.97-5.29,6.85-12.6,9.66-20.86,11.2-5.24.97-10.71,2.38-15.27,5-5.94,3.41-11.07,8.21-16.55,12.41Z"/><path class="cls-4" d="M166.6,324.34c9.31-8.23,12.18-17.69,9.41-29.33-.57-2.41,2.67-5.73,4.15-8.64.47.11.94.21,1.41.32,4.55,14.78,9.1,29.56,13.76,44.73-11.21,2.65-20.47,1.21-28.73-7.08Z"/><path class="cls-4" d="M860.49,615.27c1.43,4.45,2.85,8.9,4.52,14.09-5.61-3.75-10.25-7.59-15.5-10.18-6.54-3.22-13.41-6.17-20.47-7.84-7.39-1.74-13.16-5.23-17.98-10.79,10.89.3,21.86-.14,32.63,1.15,7.72.92,13.21,6.53,16.8,13.57Z"/><path class="cls-4" d="M437.77,203.94c-8.15,2.46-16.6,4.23-24.35,7.62-6.08,2.66-11.28,7.34-18.05,10.65,2.29-4.38,4.03-9.18,6.99-13.05,7.7-10.04,18.92-13.54,30.91-14.63,5.53-.51,11.18.21,16.77.37-4.09,3.01-8.19,6.03-12.28,9.04Z"/><path class="cls-3" d="M110.39,291.53c5.48-4.2,10.62-9,16.55-12.41,4.56-2.62,10.03-4.02,15.27-5,8.26-1.53,15.57-4.35,20.86-11.2.54,4.09,2.37,8.58,1.26,12.16-1.17,3.76-5.68,4.91-10.17,4.7-15.79-.74-30.15,4.21-43.78,11.74Z"/><path class="cls-3" d="M785.76,678.48c5.87,3.67,11.56,7.69,17.66,10.94,10.74,5.71,21.73,10.94,32.62,16.37.32,4.07-2.03,4.46-4.96,3.3-5.05-2-10.11-4.01-14.95-6.47-11.39-5.79-22.65-11.83-34.55-18.08,1.69-2.44,2.93-4.25,4.18-6.05Z"/><path class="cls-3" d="M525.49,248.25c.64-2.78,1.28-5.55,1.92-8.33,11.87,3.79,22.64,9.33,31.68,19.47-11.85-3.93-22.72-7.54-33.6-11.15Z"/><path class="cls-3" d="M437.77,203.94c4.09-3.01,8.19-6.03,12.28-9.04,3.47.84,6.94,1.68,11.85,2.87-8.81,3.4-15.8,7.37-24.13,6.17Z"/><path class="cls-3" d="M236.76,660.53c.11.41.21.83-.04-.17.52.9.31.53.1.17,0,0-.06,0-.06,0Z"/><path class="cls-3" d="M236.82,660.54l-.19-.11s.14.12.14.11c0,0,.06,0,.06,0Z"/><path class="cls-2" d="M426.1,297.99c0-5.55,0-10.45,0-15.34,31.79-9.55,59.93-1.56,66.77,28.55-21.15-11.3-43.33-15.22-66.78-13.2Z"/><path class="cls-3" d="M522.87,391.05c6.04-8.59,11.52-16.19,16.77-23.96,1.34-1.99,1.83-4.53,2.9-6.72,2.65-5.38,6.72-7.92,10.55-6.75,3.11.95,5.53,6.93,4.77,11.81-1.93,12.51-10.8,18.69-21.46,22.81-4.12,1.59-8.76,1.86-13.54,2.8Z"/><path class="cls-2" d="M450.05,623.65c6.32.06,11.86,5.47,11.9,11.63.04,6.35-6.04,12.33-12.57,12.36-6.54.02-11.6-5.38-11.53-12.33.06-6.54,5.48-11.72,12.21-11.66Z"/><path class="cls-2" d="M435.88,693.19c.11-6.97,5.11-11.84,11.96-11.67,6.92.18,11.81,5.27,11.68,12.15-.12,6.43-5.68,11.48-12.56,11.42-6.75-.06-11.19-4.84-11.08-11.9Z"/><text class="cls-1" transform="translate(252.1 194.28) rotate(-15.86)"><tspan x="0" y="0">5</tspan></text><text class="cls-1" transform="translate(425.88 154.09) rotate(-12.83)"><tspan x="0" y="0">0</tspan></text><text class="cls-1" transform="translate(586.11 171.8) rotate(10.32)"><tspan x="0" y="0">0</tspan></text><text class="cls-1" transform="translate(720.2 255.19) rotate(28.84)"><tspan x="0" y="0">0</tspan></text><text class="cls-1" transform="translate(791.87 400.13) rotate(42.58)"><tspan x="0" y="0">1</tspan></text></svg>